<?xml version="1.0" standalone="no"?>
<!DOCTYPE svg PUBLIC "-//W3C//DTD SVG 20010904//EN"
 "http://www.w3.org/TR/2001/REC-SVG-20010904/DTD/svg10.dtd">
<svg version="1.0" xmlns="http://www.w3.org/2000/svg"
 width="512.000000pt" height="512.000000pt" viewBox="0 0 512.000000 512.000000"
 preserveAspectRatio="xMidYMid meet">
<metadata>
Created by potrace 1.14, written by Peter Selinger 2001-2017
</metadata>
<g transform="translate(0.000000,512.000000) scale(0.100000,-0.100000)"
fill="#000000" stroke="none">
<path d="M0 2560 l0 -2560 2560 0 2560 0 0 2560 0 2560 -2560 0 -2560 0 0
-2560z m1088 720 c-2 -292 0 -530 3 -530 4 0 9 10 12 23 2 12 46 132 96 267
51 135 126 335 166 445 41 110 85 227 98 260 l23 60 256 3 256 2 5 -22 c3 -13
26 -176 52 -363 25 -187 52 -385 60 -440 8 -55 30 -217 50 -360 19 -143 53
-393 75 -555 22 -162 50 -362 61 -445 11 -82 22 -158 25 -167 5 -17 -6 -18
-133 -18 l-139 0 -22 168 c-23 177 -55 409 -96 712 -27 193 -88 642 -131 960
-14 102 -28 202 -31 223 -6 37 -6 37 -54 37 l-48 0 -75 -202 c-42 -112 -139
-374 -217 -583 -78 -209 -167 -450 -199 -535 l-58 -155 -152 -3 -151 -3 0 876
0 875 135 0 136 0 -3 -530z m2017 395 l0 -130 -246 -3 -245 -2 12 -128 c7 -70
25 -255 40 -412 l26 -285 37 -40 c283 -311 814 -885 816 -883 2 3 -4 406 -17
1058 l-3 135 -202 3 -203 2 0 135 0 135 330 0 c256 0 332 -3 335 -12 2 -7 9
-278 14 -603 6 -324 14 -728 17 -898 l7 -307 -161 0 -160 0 -115 123 c-500
535 -957 1042 -957 1062 0 12 -14 166 -30 341 -72 750 -80 837 -80 841 0 2
177 2 393 1 l392 -3 0 -130z m1423 -2067 l2 -168 -175 0 -175 0 0 170 0 170
173 -2 172 -3 3 -167z"/>
</g>
</svg>
